:version 1.10
:name ASF
:units
  mass 1
  length 1
  angle deg
:documentation
  ASF file generated by Kaydara
:root
  axis xyz
  order  tx ty tz rx ry rz
  position 0 0 0
  orientation 0 0 0
:bonedata
  begin
    id 1
    name RightUpLegDummy
    direction -0.718183 -0.695806 0.00816078
    length 4.904
    axis 0 0 0 xyz
  end
  begin
    id 2
    name RightUpLeg
    direction -0.0736652 -0.994202 0.0783343
    length 17.4976
    axis -2.72909 -3.00389 -4.00133 xyz
    dof rx ry rz
  end
  begin
    id 3
    name RightLeg
    direction -0.0389037 -0.994596 -0.0962598
    length 16.5821
    axis 3.95836 -18.5909 -4.46993 xyz
    dof rx ry rz
  end
  begin
    id 4
    name RightFoot
    direction -0.311643 -0.412678 0.855906
    length 3.77069
    axis -1.99483 -18.8351 -3.27644 xyz
    dof rx ry rz
  end
  begin
    id 5
    name RightToes
    direction -0.317852 0.0389852 0.947339
    length 3.85082
    axis -2.00228 -18.1713 -3.25211 xyz
    dof rx ry rz
  end
  begin
    id 6
    name SpineDummy
    direction 8.3039e-015 1 4.44677e-016
    length 4.6813
    axis 0 0 0 xyz
  end
  begin
    id 7
    name Spine
    direction -0.000262373 0.999988 0.00493267
    length 10.1015
    axis -0.00246081 0.00062579 0.0150362 xyz
    dof rx ry rz
  end
  begin
    id 8
    name Spine1
    direction 0 0 0
    length 0
    axis -0.00349562 0.000650293 0.0196666 xyz
    dof rx ry rz
  end
  begin
    id 9
    name HEadDummy
    direction -0.000343232 0.999999 0.00123745
    length 3.43865
    axis -0.00349562 0.000650293 0.0196666 xyz
  end
  begin
    id 10
    name HEad
    direction -0.0461221 0.980933 0.188796
    length 5.12695
    axis -0.00351404 -7.04812 0.0199272 xyz
    dof rx ry rz
  end
  begin
    id 11
    name LeftShoulder1Dummy
    direction 0.998904 -0.0399089 -0.0244534
    length 3.5433
    axis -0.00349562 0.000650293 0.0196666 xyz
  end
  begin
    id 12
    name LeftShoulder1
    direction 0.99951 1.64443e-005 0.0312999
    length 4.05031
    axis -0.00349562 0.000650293 0.0196666 xyz
    dof rx ry rz
  end
  begin
    id 13
    name LeftArm
    direction 0.984791 0.0515299 0.165927
    length 12.9126
    axis -64.823 -10.7743 5.20463 xyz
    dof rx ry rz
  end
  begin
    id 14
    name LeftForeArm
    direction 0.984968 0.0534808 0.16425
    length 10.8596
    axis -30.0462 -7.70601 1.87451 xyz
    dof rx ry rz
  end
  begin
    id 15
    name LeftHand
    direction 0.975871 0.0289682 0.216418
    length 6.62295
    axis -20.1348 -6.98077 1.86072 xyz
    dof rx ry rz
  end
  begin
    id 16
    name RightShoulderDummy
    direction -0.998877 -0.0405946 -0.0244307
    length 3.5433
    axis -0.00349562 0.000650293 0.0196666 xyz
  end
  begin
    id 17
    name RightShoulder
    direction -0.998933 -0.0249743 -0.0388558
    length 4.05031
    axis -0.0205316 -4.02113 1.41395 xyz
    dof rx ry rz
  end
  begin
    id 18
    name RightArm
    direction -0.997559 0.068664 0.0127103
    length 12.9638
    axis -67.3882 1.84188 -6.15987 xyz
    dof rx ry rz
  end
  begin
    id 19
    name RightForeArm
    direction -0.991508 0.0912848 0.0926241
    length 10.8312
    axis -22.1975 3.41087 -4.28711 xyz
    dof rx ry rz
  end
  begin
    id 20
    name RightHand
    direction -0.989262 0.0600788 0.133232
    length 6.57864
    axis -12.2911 2.17515 -4.39675 xyz
    dof rx ry rz
  end
  begin
    id 21
    name LeftUpLegDummy
    direction 0.718183 -0.695806 0.00816078
    length 4.904
    axis 0 0 0 xyz
  end
  begin
    id 22
    name LeftUpLeg
    direction 0.0831398 -0.99469 0.0606531
    length 17.4976
    axis -1.71016 2.29552 4.63832 xyz
    dof rx ry rz
  end
  begin
    id 23
    name LeftLeg
    direction 0.0498442 -0.991778 -0.117862
    length 16.5821
    axis 5.13757 15.5727 5.13348 xyz
    dof rx ry rz
  end
  begin
    id 24
    name LeftFoot
    direction 0.269026 -0.433896 0.85986
    length 3.77069
    axis -0.576502 15.6961 4.10267 xyz
    dof rx ry rz
  end
  begin
    id 25
    name LeftToes
    direction 0.277311 0.0251143 0.960452
    length 3.85048
    axis -0.576502 15.6961 4.10267 xyz
    dof rx ry rz
  end
:hierarchy
  begin
    root RightUpLegDummy SpineDummy LeftUpLegDummy
    RightUpLegDummy RightUpLeg
    RightUpLeg RightLeg
    RightLeg RightFoot
    RightFoot RightToes
    SpineDummy Spine
    Spine Spine1
    Spine1 HEadDummy LeftShoulder1Dummy RightShoulderDummy
    HEadDummy HEad
    LeftShoulder1Dummy LeftShoulder1
    LeftShoulder1 LeftArm
    LeftArm LeftForeArm
    LeftForeArm LeftHand
    RightShoulderDummy RightShoulder
    RightShoulder RightArm
    RightArm RightForeArm
    RightForeArm RightHand
    LeftUpLegDummy LeftUpLeg
    LeftUpLeg LeftLeg
    LeftLeg LeftFoot
    LeftFoot LeftToes
  end

:SAMPLES-PER-SECOND 30
:FULLY-SPECIFIED
:DEGREES
62
root  21.5198 39.3782 -8.67708 -3.07051 -2.58292 1.9904
RightUpLeg  -14.3915 -13.7812 2.62329
RightLeg  20.3936 9.55594 -3.50283
RightFoot  -5.9143 0.0515215 -0.574275
RightToes  -5.82073e-011 -3.18055e-015 -2.98177e-016
Spine  15.8506 0.677602 2.70325
Spine1  -0.421592 1.77186 -4.23514
HEad  -9.78896 -1.70404 3.16338
LeftShoulder1  -3.88251e-019 9.70628e-020 -3.87848e-018
LeftArm  -9.08146 17.2546 -68.7434
LeftForeArm  -18.1363 -58.1839 17.7857
LeftHand  -2.64695 -10.658 19.6585
RightShoulder  6.06659 9.94889 29.1092
RightArm  19.489 -20.2817 53.5979
RightForeArm  -32.3626 58.8841 -44.591
RightHand  -3.5397 7.51094 -30.9202
LeftUpLeg  -11.5323 5.99368 -7.43236
LeftLeg  17.4885 -5.61997 3.70058
LeftFoot  -4.79811 -0.326048 4.31419
LeftToes  1.2018e-011 -3.94675e-011 -1.33631e-011
63
root  21.7527 39.4198 -8.44418 -3.18101 -2.25543 1.95909
RightUpLeg  -12.806 -11.988 2.16984
RightLeg  18.064 7.34792 -3.74381
RightFoot  -5.3096 0.17316 -2.35914
RightToes  -5.82073e-011 -3.18055e-015 -2.98177e-016
Spine  15.6674 0.76648 3.10539
Spine1  -0.0946621 1.9232 -4.22416
HEad  -9.50001 -3.13264 4.00994
LeftShoulder1  -3.88251e-019 9.70628e-020 -3.87848e-018
LeftArm  -8.52136 16.7439 -71.8205
LeftForeArm  -16.7448 -57.2539 17.1834
LeftHand  -3.74519 -11.8745 25.6058
RightShoulder  5.99219 9.97152 28.658
RightArm  16.6411 -21.6775 53.8405
RightForeArm  -32.4238 57.5045 -41.6244
RightHand  -4.17173 7.62918 -35.7843
LeftUpLeg  -10.8351 5.53654 -7.78154
LeftLeg  17.2008 -5.32047 3.81234
LeftFoot  -5.52669 -0.248985 3.5367
LeftToes  1.2018e-011 -3.94675e-011 -1.33631e-011
64
root  21.9874 39.473 -8.19574 -2.94581 -2.30594 1.56665
RightUpLeg  -12.1892 -9.36619 1.87884
RightLeg  17.4994 4.81296 -4.0064
RightFoot  -5.35924 0.175904 -2.39673
RightToes  -5.82073e-011 -3.18055e-015 -2.98177e-016
Spine  15.6009 0.804921 3.90957
Spine1  -0.0836309 2.0716 -4.29054
HEad  -9.02032 -4.07435 4.7359
LeftShoulder1  -3.88251e-019 9.70628e-020 -3.87848e-018
LeftArm  -7.49078 19.2745 -74.1789
LeftForeArm  -13.8278 -55.6066 16.2382
LeftHand  -4.45961 -13.1451 28.2763
RightShoulder  6.07965 10.0104 29.0542
RightArm  16.3784 -24.831 51.3966
RightForeArm  -32.2195 55.5709 -38.0926
RightHand  -4.67257 7.84973 -39.2429
LeftUpLeg  -10.551 5.96551 -7.73476
LeftLeg  17.0646 -5.50734 3.76486
LeftFoot  -6.36324 -0.204865 3.19884
LeftToes  1.2018e-011 -3.94675e-011 -1.33631e-011
65
root  22.2206 39.5391 -7.92579 -2.40185 -2.82324 1.03388
RightUpLeg  -12.0045 -8.65697 2.03022
RightLeg  16.9132 4.69496 -3.84769
RightFoot  -5.30781 0.0865465 -1.09284
RightToes  -5.82073e-011 -3.18055e-015 -2.98177e-016
Spine  15.524 0.676921 4.5843
Spine1  -0.101041 2.05081 -4.54162
HEad  -8.34498 -4.24532 5.40164
LeftShoulder1  -3.88251e-019 9.70628e-020 -3.87848e-018
LeftArm  -6.34813 24.6369 -75.0227
LeftForeArm  -10.1441 -53.361 15.0616
LeftHand  -3.90918 -13.0053 25.0086
RightShoulder  6.35465 10.1198 30.3113
RightArm  18.3053 -29.8587 46.3532
RightForeArm  -31.6998 53.4369 -34.8063
RightHand  -4.17302 7.09048 -37.1371
LeftUpLeg  -10.4873 6.94199 -7.49
LeftLeg  16.7516 -5.85533 3.50281
LeftFoot  -6.68961 -0.218507 3.57981
LeftToes  1.2018e-011 -3.94675e-011 -1.33631e-011
66
root  22.4107 39.598 -7.65257 -1.92795 -3.51282 0.694584
RightUpLeg  -11.813 -9.29317 2.14117
RightLeg  16.2431 5.55134 -3.4675
RightFoot  -5.39496 0.0392092 -0.409817
RightToes  -5.82073e-011 -3.18055e-015 -2.98177e-016
Spine  15.3568 0.508589 4.19546
Spine1  0.704792 1.75702 -4.01953
HEad  -8.12846 -4.20322 6.30412
LeftShoulder1  -3.88251e-019 9.70628e-020 -3.87848e-018
LeftArm  -5.27311 31.6467 -74.5428
LeftForeArm  -8.24435 -50.1326 13.3764
LeftHand  -2.55994 -11.1826 18.4267
RightShoulder  6.67911 10.2553 31.7515
RightArm  21.379 -36.2389 39.1977
RightForeArm  -30.6511 51.0537 -31.6851
RightHand  -2.81905 5.0758 -30.2183
LeftUpLeg  -10.3407 8.19032 -7.30177
LeftLeg  16.4625 -6.38985 3.03009
LeftFoot  -6.60335 -0.264581 4.35091
LeftToes  1.2018e-011 -3.94675e-011 -1.33631e-011
67
root  22.5338 39.6325 -7.38221 -1.56032 -4.1734 0.674479
RightUpLeg  -11.9088 -10.5729 2.09401
RightLeg  16.2993 6.1793 -3.3951
RightFoot  -5.86757 0.051857 -0.606786
RightToes  -5.82073e-011 -3.18055e-015 -2.98177e-016
Spine  15.0622 0.375709 2.58023
Spine1  2.44783 1.15334 -2.30417
HEad  -8.55927 -4.33535 7.65991
LeftShoulder1  -3.88251e-019 9.70628e-020 -3.87848e-018
LeftArm  -4.45078 39.3756 -73.2888
LeftForeArm  -10.3655 -45.6558 11.1496
LeftHand  -1.3745 -8.08513 12.451
RightShoulder  6.93135 10.3265 32.9197
RightArm  24.5771 -42.9379 30.8742
RightForeArm  -27.7052 47.0178 -27.3338
RightHand  -1.68177 2.5554 -24.1492
LeftUpLeg  -10.1291 9.88394 -7.31981
LeftLeg  16.2999 -7.3109 2.45681
LeftFoot  -6.71385 -0.292194 4.9167
LeftToes  1.2018e-011 -3.94675e-011 -1.33631e-011
68
root  22.6148 39.6327 -7.11428 -0.889416 -4.98166 0.796584
RightUpLeg  -12.7498 -12.3837 2.23643
RightLeg  17.0335 6.30842 -3.69934
RightFoot  -6.20516 0.0630976 -0.796716
RightToes  -5.82073e-011 -3.18055e-015 -2.98177e-016
Spine  14.6997 0.172796 0.64721
Spine1  4.29189 0.331295 -0.297075
HEad  -9.14733 -4.35194 9.20971
LeftShoulder1  -3.88251e-019 9.70628e-020 -3.87848e-018
LeftArm  -4.0517 47.717 -71.4929
LeftForeArm  -15.2725 -40.1649 8.78927
LeftHand  -0.771312 -4.74862 9.53723
RightShoulder  7.12476 10.3351 33.9031
RightArm  26.7475 -48.9899 22.0538
RightForeArm  -21.7378 39.6645 -21.3305
RightHand  -1.18756 0.494609 -22.8904
LeftUpLeg  -10.3525 12.0216 -7.57611
LeftLeg  16.2952 -8.40533 2.01002
LeftFoot  -7.16602 -0.295528 5.3343
LeftToes  1.2018e-011 -3.94675e-011 -1.33631e-011
69
root  22.6875 39.6009 -6.85941 0.266566 -6.08276 0.802349
RightUpLeg  -14.2469 -14.5695 2.9168
RightLeg  17.7471 6.11864 -4.11359
RightFoot  -6.09648 0.0641453 -0.808106
RightToes  -5.82073e-011 -3.18055e-015 -2.98177e-016
Spine  14.4214 -0.172154 -0.695474
Spine1  5.62133 -0.516493 1.17194
HEad  -9.64689 -3.93875 10.398
LeftShoulder1  -3.88251e-019 9.70628e-020 -3.87848e-018
LeftArm  -4.03401 56.7651 -69.4391
LeftForeArm  -18.9626 -34.3867 6.85531
LeftHand  -0.717169 -3.24469 10.2757
RightShoulder  7.31432 10.3509 34.8431
RightArm  27.6725 -53.8781 11.7748
RightForeArm  -14.5389 29.9428 -15.5129
RightHand  -0.948645 -1.12801 -24.9509
LeftUpLeg  -11.4025 14.1238 -8.01871
LeftLeg  16.7056 -9.36736 1.88865
LeftFoot  -7.62233 -0.315422 6.16751
LeftToes  1.2018e-011 -3.94675e-011 -1.33631e-011
70
root  22.7605 39.555 -6.63213 1.53224 -7.41013 0.556081
RightUpLeg  -15.8033 -16.4029 4.03236
RightLeg  18.1616 5.89145 -4.37352
RightFoot  -5.88706 0.0830125 -1.0911
RightToes  -5.82073e-011 -3.18055e-015 -2.98177e-016
Spine  14.3974 -0.52942 -1.08893
Spine1  6.73213 -1.16887 2.03861
HEad  -10.3813 -3.21071 10.9313
LeftShoulder1  -3.88251e-019 9.70628e-020 -3.87848e-018
LeftArm  -5.70631 66.0146 -67.6377
LeftForeArm  -18.048 -28.9846 4.88764
LeftHand  -0.87952 -3.34277 12.4396
RightShoulder  7.45934 10.3822 35.5144
RightArm  28.2088 -57.3968 -1.82129
RightForeArm  -8.10512 21.4644 -10.9052
RightHand  -0.610714 -2.86817 -26.6325
LeftUpLeg  -12.9497 15.7981 -8.40179
LeftLeg  17.6854 -10.0102 2.10331
LeftFoot  -7.99554 -0.347683 7.32019
LeftToes  1.2018e-011 -3.94675e-011 -1.33631e-011
71
root  22.8302 39.5074 -6.44103 2.50227 -9.03943 0.136767
RightUpLeg  -17.0054 -17.1261 5.14881
RightLeg  18.4502 5.81672 -4.4173
RightFoot  -5.80278 0.120973 -1.66834
RightToes  -5.82073e-011 -3.18055e-015 -2.98177e-016
Spine  14.6144 -0.764197 -0.548363
Spine1  8.243 -1.43922 2.18423
HEad  -11.5209 -2.28833 10.9549
LeftShoulder1  -3.88251e-019 9.70628e-020 -3.87848e-018
LeftArm  -12.728 74.6528 -65.4359
LeftForeArm  -9.40693 -24.0482 1.0445
LeftHand  -0.890608 -2.9524 13.1766
RightShoulder  7.45687 10.3605 35.5499
RightArm  29.1734 -59.3759 -18.5337
RightForeArm  -1.97614 16.1512 -6.78474
RightHand  -0.241843 -4.42551 -25.9189
LeftUpLeg  -14.2916 16.9995 -8.42198
LeftLeg  18.9134 -9.77156 2.43415
LeftFoot  -8.55935 -0.340513 8.00232
LeftToes  1.2018e-011 -3.94675e-011 -1.33631e-011
72
root  22.8965 39.4598 -6.29672 3.31114 -11.1366 -0.173338
RightUpLeg  -18.0619 -16.5768 5.93555
RightLeg  18.6344 5.8314 -4.36302
RightFoot  -5.75086 0.153252 -2.15367
RightToes  -5.82073e-011 -3.18055e-015 -2.98177e-016
Spine  14.7826 -0.920062 0.527539
Spine1  10.2933 -1.31389 1.35087
HEad  -12.7825 -1.13315 10.8233
LeftShoulder1  -3.88251e-019 9.70628e-020 -3.87848e-018
LeftArm  -18.0073 82.4324 -59.6445
LeftForeArm  1.43277 -19.3856 -2.27293
LeftHand  -0.666509 -1.73577 11.6066
RightShoulder  7.28548 10.2586 34.8997
RightArm  36.9761 -60.0564 -35.4099
RightForeArm  -1.02224 12.3621 -5.26529
RightHand  -0.0372502 -5.30614 -23.3203
LeftUpLeg  -15.331 18.5668 -8.47343
LeftLeg  19.8131 -9.11296 2.75327
LeftFoot  -9.32273 -0.287714 7.96024
LeftToes  1.2018e-011 -3.94675e-011 -1.33631e-011
73
root  22.9563 39.4093 -6.22109 4.42644 -13.4772 -0.098784
RightUpLeg  -19.616 -15.4079 6.4059
RightLeg  18.7735 6.01408 -4.38236
RightFoot  -5.81906 0.16371 -2.33036
RightToes  -5.82073e-011 -3.18055e-015 -2.98177e-016
Spine  14.5866 -1.06358 1.45891
Spine1  12.6014 -0.984289 -0.0982939
HEad  -14.0754 0.0190195 10.8643
LeftShoulder1  -3.88251e-019 9.70628e-020 -3.87848e-018
LeftArm  47.9098 88.5905 11.3476
LeftForeArm  7.96854 -16.3698 -3.28724
LeftHand  -0.451939 -0.860312 9.11691
RightShoulder  7.05438 10.1367 33.9743
RightArm  46.9894 -59.6216 -50.5535
RightForeArm  0.277045 10.1851 -4.91711
RightHand  0.00207534 -5.50508 -20.5588
LeftUpLeg  -16.6626 20.1245 -9.15919
LeftLeg  20.2363 -8.47705 3.05642
LeftFoot  -9.88463 -0.242382 7.69725
LeftToes  1.2018e-011 -3.94675e-011 -1.33631e-011
74
root  23.0069 39.3372 -6.23763 6.07133 -15.6361 0.309721
RightUpLeg  -22.1951 -14.4504 6.86064
RightLeg  19.3627 6.44383 -4.58131
RightFoot  -6.16643 0.159943 -2.36402
RightToes  -5.82073e-011 -3.18055e-015 -2.98177e-016
Spine  14.1402 -1.1822 1.96051
Spine1  14.8621 -0.638984 -1.49769
HEad  -15.7316 0.794808 11.1181
LeftShoulder1  -3.88251e-019 9.70628e-020 -3.87848e-018
LeftArm  132.61 83.4041 97.306
LeftForeArm  13.1802 -15.451 -3.89084
LeftHand  -0.378294 -1.34766 7.10385
RightShoulder  6.91309 10.0765 33.368
RightArm  55.705 -58.4581 -62.9407
RightForeArm  2.5217 9.37305 -5.1232
RightHand  -0.0655797 -5.11216 -19.0006
LeftUpLeg  -18.8082 20.2963 -10.4263
LeftLeg  20.5694 -7.17523 3.64367
LeftFoot  -10.1252 -0.21855 7.38547
LeftToes  1.2018e-011 -3.94675e-011 -1.33631e-011
